# xmcd
#
# Track frame offsets:
#	150
#	16979
#	36007
#	49343
#	69141
#	90576
#	106908
#	124154
#	141101
#	153121
#	167892
#	182967
#
# Disc length: 2670 seconds
#
# Revision: 1
# Processed by: cddbd v1.5.2PL0 Copyright (c) Steve Scherf et al.
# Submitted via: audiograbber 1.83.01
#
DISCID=970a6c0c
DTITLE=Sara Storer - Raindance
DYEAR=2019
DGENRE=Country
TTITLE0=Raindance
TTITLE1=My Little Men
TTITLE2=Plough'n It In
TTITLE3=Next Year People
TTITLE4=Hay Runner
TTITLE5=Every Boy Needs A Bike
TTITLE6=How Sweet The Voice
TTITLE7=Natalie
TTITLE8=Fox
TTITLE9=The Captain
TTITLE10=Someday
TTITLE11=Jigalong Girls
EXTD=
EXTT0=
EXTT1=
EXTT2=
EXTT3=
EXTT4=
EXTT5=
EXTT6=
EXTT7=
EXTT8=
EXTT9=
EXTT10=
EXTT11=
PLAYORDER=
